# xmcd
#
# Track frame offsets:
#	150
#	2939
#	22405
#	36908
#	52412
#	68456
#	88540
#	97004
#	117139
#	133210
#	154181
#	170827
#
# Disc length: 2510 seconds
#
# Revision: 2
# Processed by: cddbd v1.5.1PL0 Copyright (c) Steve Scherf et al.
# Submitted via: audiograbber 1.83.01
#
DISCID=ac09cc0c
DTITLE=Stuart, Chris - Angels of Mineral Springs
DYEAR=2002
DGENRE=Bluegrass
TTITLE0=Desert Lullaby (intro)
TTITLE1=Springhill Mine
TTITLE2=Elvis Stays Home
TTITLE3=I Did Not Hear Them Go
TTITLE4=The Road Into Town
TTITLE5=Angels of Mineral Springs
TTITLE6=Desert Lullaby
TTITLE7=Saro
TTITLE8=The Last Yellow Rose
TTITLE9=Slow Dancing at Evangeline's
TTITLE10=Chasing The Fire
TTITLE11=A Single Candle
EXTD=
EXTT0=
EXTT1=
EXTT2=
EXTT3=
EXTT4=
EXTT5=
EXTT6=
EXTT7=
EXTT8=
EXTT9=
EXTT10=
EXTT11=
PLAYORDER=
